<?xml version="1.0" encoding="iso-8859-1"?>
<!-- Generator: Adobe Illustrator 17.1.0, SVG Export Plug-In . SVG Version: 6.00 Build 0)  -->
<!DOCTYPE svg PUBLIC "-//W3C//DTD SVG 1.1//EN" "http://www.w3.org/Graphics/SVG/1.1/DTD/svg11.dtd">
<svg version="1.1" id="Capa_1" xmlns="http://www.w3.org/2000/svg" xmlns:xlink="http://www.w3.org/1999/xlink" x="0px" y="0px"
	 viewBox="0 0 182.398 182.398" style="enable-background:new 0 0 182.398 182.398;" xml:space="preserve">
<path style="fill:#000002;" d="M103.854,182.398H78.545c-1.131,0-2.121-0.759-2.414-1.852l-2.645-9.843h-3.755
	c-1.381,0-2.5-1.119-2.5-2.5v-27.891c-0.316-1.829-2.992-16.499-9.124-27.817c-3.064-5.658-6.859-12.068-10.208-17.724
	c-2.587-4.369-4.82-8.141-6.104-10.542c-0.329-0.583-0.667-1.22-0.997-1.863l-0.091-0.169c-0.038-0.071-0.073-0.143-0.104-0.215
	c-3.988-7.935-6.01-16.471-6.01-25.375C34.593,25.394,59.986,0,91.199,0s56.606,25.394,56.606,56.606
	c0,8.904-2.022,17.441-6.01,25.375c-0.028,0.066-0.06,0.131-0.094,0.195l-0.124,0.231c-0.307,0.601-0.645,1.237-0.997,1.865
	c-1.261,2.357-3.494,6.13-6.081,10.499c-3.349,5.656-7.145,12.066-10.209,17.724c-6.144,11.34-8.809,25.99-9.124,27.817v27.891
	c0,1.381-1.119,2.5-2.5,2.5h-3.755l-2.645,9.843C105.975,181.639,104.984,182.398,103.854,182.398z M80.462,177.398h21.475
	l1.799-6.694H78.663L80.462,177.398z M106.995,165.704h3.172v-23.101H72.231v23.101H106.995z M101.423,137.604h9.159
	c0.956-4.878,3.765-17.249,9.313-27.489c3.11-5.741,6.932-12.195,10.304-17.89c2.557-4.318,4.765-8.047,5.998-10.353
	c0.345-0.617,0.653-1.197,0.953-1.783l0.068-0.127c0.015-0.032,0.029-0.064,0.046-0.096c3.678-7.268,5.542-15.093,5.542-23.258
	C142.806,28.15,119.655,5,91.199,5S39.593,28.15,39.593,56.606c0,8.165,1.864,15.991,5.542,23.258
	c0.016,0.031,0.03,0.062,0.045,0.093l0.054,0.099c0.314,0.616,0.623,1.195,0.944,1.768c1.259,2.352,3.467,6.082,6.023,10.4
	c3.372,5.694,7.193,12.148,10.303,17.89c5.548,10.24,8.356,22.611,9.313,27.489h9.159V96.803l-18.57-53.613
	c-0.244-0.706-0.16-1.484,0.229-2.122s1.044-1.067,1.783-1.172l16.714-2.359c0.105-0.016,0.212-0.026,0.32-0.029
	c0.027,0,0.055,0,0.081-0.001h19.332c0.025,0.001,0.055,0,0.081,0.001c0.108,0.003,0.215,0.013,0.32,0.029l16.714,2.359
	c0.739,0.104,1.394,0.534,1.783,1.172s0.474,1.416,0.229,2.122l-18.57,53.613V137.604z M85.976,137.604h10.447V96.44
	c-0.001-0.039-0.001-0.078,0-0.117v-2.125c0-1.893-1.54-3.432-3.433-3.432h-3.582c-1.893,0-3.433,1.54-3.433,3.432v2.125
	c0.001,0.039,0.001,0.078,0,0.117V137.604z M97.199,86.894c0.687,0.397,1.313,0.888,1.86,1.456l15.215-43.927l-11.25-1.588
	l-5.741,43.664C97.266,86.635,97.237,86.766,97.199,86.894z M68.124,44.422L83.339,88.35c0.548-0.568,1.174-1.059,1.86-1.456
	c-0.038-0.127-0.066-0.259-0.084-0.395l-5.741-43.664L68.124,44.422z M90.062,85.766h2.275l5.688-43.26h-13.65L90.062,85.766z"/>
<g>
</g>
<g>
</g>
<g>
</g>
<g>
</g>
<g>
</g>
<g>
</g>
<g>
</g>
<g>
</g>
<g>
</g>
<g>
</g>
<g>
</g>
<g>
</g>
<g>
</g>
<g>
</g>
<g>
</g>
</svg>
